{"title":"Humpty Sharma Ki Dulhania (2014) 720p Blu-Ray - x264 - AC3 - 5.1","uid":11023827,"size":1126485321,"categoryP":"video","categoryS":"hd___movies","magnet":"?xt=urn:btih:c6cfe77718b2dc36bb28514464ec16f04c53548b&amp;dn=Humpty+Sharma+Ki+Dulhania+%282014%29+720p+Blu-Ray+-+x264+-+AC3+-+5.1&amp;tr=udp%3A%2F%2Ftracker.openbittorrent.com%3A80&amp;tr=udp%3A%2F%2Fopen.demonii.com%3A1337&amp;tr=udp%3A%2F%2Ftracker.coppersurfer.tk%3A6969&amp;tr=udp%3A%2F%2Fexodus.desync.com%3A6969","seeders":32,"leechers":12,"uploader":"inovai","files":4,"time":1410640071,"description":"Humpty Sharma Ki Dulhania (2014) - 720p - Blu-Ray - Hindi - x264 - AC3 - 5.1 - ESubs - Mafiaking - TeamTNT ExClusive\n\nCover:\n  &lt;a href=&quot;\nhttp://forum.primetimeshow.in/viewtopic.php?f=7&amp;t=674&quot; rel=&quot;nofollow&quot; target=&quot;_NEW&quot;&gt;\nhttp://forum.primetimeshow.in/viewtopic.php?f=7&amp;t=674&lt;/a&gt;\n\n\nScreenshots:\n  &lt;a href=&quot;\nhttp://m.primetimeshow.in/share-C0EC_54132C75.html&quot; rel=&quot;nofollow&quot; target=&quot;_NEW&quot;&gt;\nhttp://m.primetimeshow.in/share-C0EC_54132C75.html&lt;/a&gt;\n  &lt;a href=&quot;\nhttp://m.primetimeshow.in/share-2EA6_54132C75.html&quot; rel=&quot;nofollow&quot; target=&quot;_NEW&quot;&gt;\nhttp://m.primetimeshow.in/share-2EA6_54132C75.html&lt;/a&gt;\n  &lt;a href=&quot;\nhttp://m.primetimeshow.in/share-FFDF_54132C75.html&quot; rel=&quot;nofollow&quot; target=&quot;_NEW&quot;&gt;\nhttp://m.primetimeshow.in/share-FFDF_54132C75.html&lt;/a&gt;\n  &lt;a href=&quot;\nhttp://m.primetimeshow.in/share-8FB3_54132C75.html&quot; rel=&quot;nofollow&quot; target=&quot;_NEW&quot;&gt;\nhttp://m.primetimeshow.in/share-8FB3_54132C75.html&lt;/a&gt;\n  &lt;a href=&quot;\nhttp://m.primetimeshow.in/share-023B_54132C75.html&quot; rel=&quot;nofollow&quot; target=&quot;_NEW&quot;&gt;\nhttp://m.primetimeshow.in/share-023B_54132C75.html&lt;/a&gt;\n\nGENRE: Comedy | Drama | Romance\n\n\nGeneral\nUnique ID : 252222665304894471703405169516901554315 (0xBDC051811D63E3CCB7675C04AAB7D88B)\nComplete name : Humpty Sharma Ki Dulhania (2014) 720p Blu-Ray - x264 - AC3 - 5.1 - ESubs - Mafiaking - TeamTNT.mkv\nFormat : Matroska\nFormat version : Version 4 / Version 2\nFile size : 1.04 GiB\nDuration : 2h 12mn\nOverall bit rate : 1 126 Kbps\nMovie name : Humpty Sharma Ki Dulhania (2014) 720p Blu-Ray - x264 - AC3 - 5.1 - ESubs - Mafiaking - TeamTNT\nEncoded date : UTC 2014-09-12 18:43:22\nWriting application : mkvmerge v7.0.0 ('Where We Going') 32bit built on Jun 9 2014 15:08:34\nWriting library : libebml v1.3.0 + libmatroska v1.4.1\n\n\nVideo\nID : 1\nFormat : AVC\nFormat/Info : Advanced Video Codec\nFormat profile : &lt;a class=&quot;__cf_email__&quot; href=&quot;/cdn-cgi/l/email-protection&quot; data-cfemail=&quot;551d3c323d1519667b64&quot;&gt;[email&amp;#160;protected]&lt;/a&gt;&lt;script cf-hash='f9e31' type=&quot;text/javascript&quot;&gt;\n/* &lt;![CDATA[ */!function(){try{var t=&quot;currentScript&quot;in document?document.currentScript:function(){for(var t=document.getElementsByTagName(&quot;script&quot;),e=t.length;e--;)if(t[e].getAttribute(&quot;cf-hash&quot;))return t[e]}();if(t&amp;&amp;t.previousSibling){var e,r,n,i,c=t.previousSibling,a=c.getAttribute(&quot;data-cfemail&quot;);if(a){for(e=&quot;&quot;,r=parseInt(a.substr(0,2),16),n=2;a.length-n;n+=2)i=parseInt(a.substr(n,2),16)^r,e+=String.fromCharCode(i);e=document.createTextNode(e),c.parentNode.replaceChild(e,c)}}}catch(u){}}();/* ]]&gt; */&lt;/script&gt;\nFormat settings, CABAC : Yes\nFormat settings, ReFrames : 4 frames\nCodec ID : V_MPEG4/ISO/AVC\nDuration : 2h 12mn\nBit rate : 900 Kbps\nWidth : 1 280 pixels\nHeight : 544 pixels\nDisplay aspect ratio : 2.35:1\nFrame rate mode : Constant\nFrame rate : 24.000 fps\nColor space : YUV\nChroma subsampling : 4:2:0\nBit depth : 8 bits\nScan type : Progressive\nBits/(Pixel*Frame) : 0.054\nStream size : 832 MiB (78%)\nTitle : Mafiaking\nLanguage : Hindi\nDefault : Yes\nForced : No\n\n\nAudio\nID : 2\nFormat : AC-3\nFormat/Info : Audio Coding 3\nMode extension : CM (complete main)\nFormat settings, Endianness : Big\nCodec ID : A_AC3\nDuration : 2h 12mn\nBit rate mode : Constant\nBit rate : 224 Kbps\nChannel(s) : 6 channels\nChannel positions : Front: L C R, Side: L R, LFE\nSampling rate : 48.0 KHz\nBit depth : 16 bits\nCompression mode : Lossy\nStream size : 212 MiB (20%)\nTitle : Mafiaking\nLanguage : Hindi\nDefault : Yes\nForced : No\n\n\n\n\n\nSAMPLE WITH IN TORRENT\n\nThanks to Mafiaking - TeamTNT!!\n\nSeed n Enjoy!","torrent":{"xt":"urn:btih:c6cfe77718b2dc36bb28514464ec16f04c53548b","amp;dn":"Humpty+Sharma+Ki+Dulhania+%282014%29+720p+Blu-Ray+-+x264+-+AC3+-+5.1","amp;tr":["udp%3A%2F%2Ftracker.openbittorrent.com%3A80","udp%3A%2F%2Fopen.demonii.com%3A1337","udp%3A%2F%2Ftracker.coppersurfer.tk%3A6969","udp%3A%2F%2Fexodus.desync.com%3A6969"],"infoHash":"c6cfe77718b2dc36bb28514464ec16f04c53548b","infoHashBuffer":{"type":"Buffer","data":[198,207,231,119,24,178,220,54,187,40,81,68,100,236,22,240,76,83,84,139]},"announce":[],"urlList":[]}}